<svg class="iconLeft" viewBox="38.80002 132 222 35.4" xmlns="http://www.w3.org/2000/svg" data-v-fde0c5aa="" style="max-height: 500px" width="222" height="35.4"><defs data-v-fde0c5aa=""/><rect class="logo-background-square" height="300px" width="300px" y="0" x="0" fill="#fff" data-v-fde0c5aa="" style="--darkreader-inline-fill: #202325;" data-darkreader-inline-fill=""/><defs data-v-fde0c5aa=""/><g transform="matrix(2.085604190826416,0,0,2.085604190826416,83.9124493060528,132.19936936276562)" fill="#28282D" id="6af526d1-2f41-4bb3-9c8d-c4df4bc006a0" data-v-fde0c5aa="" style="--darkreader-inline-fill: #202324;" data-darkreader-inline-fill=""><path d="M7.98 11.09C7.88 10.08 7.52 9.24 6.65 8.86C7.67 8.55 8.44 7.81 8.44 6.55C8.44 4.90 7.39 4.16 5.99 3.98C5.53 3.92 5.18 3.92 4.66 3.92L1.33 3.92L1.33 13.58L2.87 13.58L2.87 9.55L4.37 9.55C4.61 9.55 4.84 9.55 5.08 9.56C5.96 9.62 6.34 10.26 6.47 11.28C6.58 12.35 6.71 12.95 6.96 13.58L8.65 13.58C8.26 13.05 8.09 12.31 7.98 11.09ZM2.87 8.36L2.87 5.14L4.58 5.14C4.97 5.14 5.22 5.15 5.47 5.19C6.30 5.31 6.82 5.73 6.82 6.75C6.82 7.77 6.19 8.25 5.35 8.33C5.11 8.36 4.87 8.36 4.48 8.36ZM16.25 9.67C16.25 7.57 15.09 5.95 12.94 5.95C10.79 5.95 9.30 7.53 9.30 9.88C9.30 12.52 10.79 13.78 12.78 13.78C14.41 13.78 15.82 12.94 16.14 11.17L14.59 11.17C14.43 12.11 13.73 12.66 12.84 12.66C11.83 12.66 11.02 12.07 10.89 10.29L16.23 10.29C16.25 10.02 16.25 9.81 16.25 9.67ZM12.88 7.07C13.96 7.07 14.56 7.84 14.67 9.21L10.91 9.21C11.07 7.78 11.83 7.07 12.88 7.07ZM24.12 9.67C24.12 7.57 22.96 5.95 20.80 5.95C18.66 5.95 17.16 7.53 17.16 9.88C17.16 12.52 18.66 13.78 20.65 13.78C22.27 13.78 23.69 12.94 24.01 11.17L22.46 11.17C22.30 12.11 21.60 12.66 20.71 12.66C19.70 12.66 18.89 12.07 18.76 10.29L24.09 10.29C24.12 10.02 24.12 9.81 24.12 9.67ZM20.75 7.07C21.83 7.07 22.43 7.84 22.54 9.21L18.77 9.21C18.94 7.78 19.70 7.07 20.75 7.07ZM27.08 3.29L25.54 3.29L25.54 11.35C25.54 11.80 25.54 12.14 25.55 12.42C25.61 13.37 26.15 13.66 26.96 13.66C27.31 13.66 27.66 13.64 27.97 13.59L27.97 12.52C27.31 12.57 27.12 12.43 27.09 12.01C27.08 11.79 27.08 11.56 27.08 11.31ZM39.16 11.09C39.06 10.08 38.70 9.24 37.83 8.86C38.85 8.55 39.62 7.81 39.62 6.55C39.62 4.90 38.57 4.16 37.17 3.98C36.71 3.92 36.36 3.92 35.84 3.92L32.51 3.92L32.51 13.58L34.05 13.58L34.05 9.55L35.55 9.55C35.78 9.55 36.02 9.55 36.26 9.56C37.14 9.62 37.52 10.26 37.65 11.28C37.76 12.35 37.88 12.95 38.14 13.58L39.83 13.58C39.44 13.05 39.27 12.31 39.16 11.09ZM34.05 8.36L34.05 5.14L35.76 5.14C36.15 5.14 36.40 5.15 36.65 5.19C37.48 5.31 38.00 5.73 38.00 6.75C38.00 7.77 37.37 8.25 36.53 8.33C36.29 8.36 36.05 8.36 35.66 8.36ZM47.43 9.67C47.43 7.57 46.27 5.95 44.11 5.95C41.97 5.95 40.47 7.53 40.47 9.88C40.47 12.52 41.97 13.78 43.96 13.78C45.58 13.78 47.00 12.94 47.32 11.17L45.77 11.17C45.61 12.11 44.91 12.66 44.02 12.66C43.01 12.66 42.20 12.07 42.07 10.29L47.40 10.29C47.43 10.02 47.43 9.81 47.43 9.67ZM44.06 7.07C45.14 7.07 45.74 7.84 45.85 9.21L42.08 9.21C42.25 7.78 43.01 7.07 44.06 7.07ZM55.43 6.15L53.79 6.15L51.73 12.45L49.64 6.15L47.95 6.15L50.79 13.58L52.58 13.58ZM57.20 3.56C56.69 3.56 56.31 3.93 56.31 4.44C56.31 4.96 56.69 5.33 57.20 5.33C57.72 5.33 58.11 4.96 58.11 4.44C58.11 3.93 57.72 3.56 57.20 3.56ZM57.97 13.58L57.97 6.15L56.43 6.15L56.43 13.58ZM66.35 9.67C66.35 7.57 65.18 5.95 63.03 5.95C60.89 5.95 59.39 7.53 59.39 9.88C59.39 12.52 60.89 13.78 62.87 13.78C64.50 13.78 65.91 12.94 66.23 11.17L64.68 11.17C64.53 12.11 63.83 12.66 62.93 12.66C61.92 12.66 61.11 12.07 60.98 10.29L66.32 10.29C66.35 10.02 66.35 9.81 66.35 9.67ZM62.97 7.07C64.05 7.07 64.65 7.84 64.76 9.21L61.00 9.21C61.17 7.78 61.92 7.07 62.97 7.07ZM78.09 6.15L76.45 6.15L74.93 12.22L73.44 6.16L71.57 6.16L70.13 12.21L68.60 6.15L66.86 6.15L69.23 13.58L71.01 13.58L72.49 7.57L73.96 13.58L75.73 13.58ZM81.49 5.95C79.84 5.95 78.75 6.79 78.75 8.18C78.75 9.48 79.76 10.05 81.12 10.40C82.38 10.74 82.88 11.09 82.88 11.73C82.88 12.38 82.31 12.68 81.59 12.68C80.82 12.68 80.19 12.31 80.01 11.35L78.46 11.35C78.67 13.03 79.88 13.78 81.54 13.78C83.16 13.78 84.43 13.06 84.43 11.62C84.43 10.30 83.58 9.66 81.96 9.24C80.85 8.95 80.30 8.67 80.30 7.99C80.30 7.43 80.65 7.03 81.38 7.03C82.14 7.03 82.60 7.49 82.75 8.27L84.32 8.27C84.15 6.92 83.20 5.95 81.49 5.95Z"/></g><defs data-v-fde0c5aa=""/><g transform="matrix(1.0866549015045166,0,0,1.0866549015045166,39.45667253479627,132.61352072486247)" fill="#574851" stroke="none" id="bdfd7998-60cb-4681-85fd-ffb8dccdbaf6" data-v-fde0c5aa="" style="--darkreader-inline-fill: #3c4143; --darkreader-inline-stroke: none;" data-darkreader-inline-fill="" data-darkreader-inline-stroke=""><path d="M26.4 26.8l3.5 1.7c.7.4 1.6-.2 1.6-1v-9.1c0-.8-.9-1.4-1.6-1l-3.5 1.8c-.4.2-.6.6-.6 1v5.6c0 .4.2.8.6 1zM23 14.7H1.6c-.6 0-1.1.5-1.1 1.1V30c0 .6.5 1.1 1.1 1.1H23c.6 0 1.1-.5 1.1-1.1V15.8c0-.6-.5-1.1-1.1-1.1zm-10.3 4.7H4.3c-.5 0-.8-.4-.8-.8s.4-.8.8-.8h8.4c.5 0 .8.4.8.8s-.3.8-.8.8zM17.9.9c-2.9 0-5.3 2.4-5.3 5.3s2.4 5.3 5.3 5.3 5.3-2.4 5.3-5.3S20.8.9 17.9.9zM6.3 2.4C4 2.4 2.1 4.3 2.1 6.6c0 2.3 1.9 4.1 4.1 4.1 2.3 0 4.1-1.9 4.1-4.1.1-2.3-1.7-4.2-4-4.2z"/></g></svg>